<svg xmlns="http://www.w3.org/2000/svg" width="39.451" height="52.334" viewBox="0 0 39.451 52.334">
  <g id="Grupo_66" data-name="Grupo 66" transform="translate(-1013.496 -529.832)">
    <path id="Caminho_55" data-name="Caminho 55" d="M5,0H16.326C19.087,0,29.9,9.582,29.9,12.343L30,40a5,5,0,0,1-5,5H5a5,5,0,0,1-5-5V5A5,5,0,0,1,5,0Z" transform="translate(1022 536)" fill="#ff2d2d" opacity="0.3"/>
    <g id="Icon_feather-file" data-name="Icon feather-file" transform="translate(1009 528.332)">
      <path id="Caminho_52" data-name="Caminho 52" d="M26.5,3H10.555A4.756,4.756,0,0,0,6,7.934V47.4a4.756,4.756,0,0,0,4.555,4.934H37.887A4.756,4.756,0,0,0,42.443,47.4V20.268Z" fill="none" stroke="#ff2d2d" stroke-linecap="round" stroke-linejoin="round" stroke-width="3"/>
      <path id="Caminho_53" data-name="Caminho 53" d="M19.5,3V20.268H36.768" transform="translate(5.675)" fill="none" stroke="#ff2d2d" stroke-linecap="round" stroke-linejoin="round" stroke-width="3"/>
    </g>
    <text id="PDF" transform="translate(1022 570)" fill="#ff2d2d" font-size="12" font-family="SegoeUI-Bold, Segoe UI" font-weight="700" letter-spacing="0.05em"><tspan x="0" y="0">PDF</tspan></text>
  </g>
</svg>
