<svg xmlns="http://www.w3.org/2000/svg" width="39.504" height="52.334" viewBox="0 0 39.504 52.334">
  <g id="Grupo_125" data-name="Grupo 125" transform="translate(-1013.496 -529.832)">
    <path id="Caminho_55" data-name="Caminho 55" d="M5,0H16.326C19.087,0,29.9,9.582,29.9,12.343L30,40a5,5,0,0,1-5,5H5a5,5,0,0,1-5-5V5A5,5,0,0,1,5,0Z" transform="translate(1023 536)" fill="#fa9627" opacity="0.3"/>
    <g id="Grupo_122" data-name="Grupo 122">
      <g id="Icon_feather-file" data-name="Icon feather-file" transform="translate(1009 528.332)">
        <path id="Caminho_52" data-name="Caminho 52" d="M26.5,3H10.555A4.756,4.756,0,0,0,6,7.934V47.4a4.756,4.756,0,0,0,4.555,4.934H37.887A4.756,4.756,0,0,0,42.443,47.4V20.268Z" fill="none" stroke="#fa9627" stroke-linecap="round" stroke-linejoin="round" stroke-width="3"/>
        <path id="Caminho_53" data-name="Caminho 53" d="M19.5,3V20.268H36.768" transform="translate(5.675)" fill="none" stroke="#fa9627" stroke-linecap="round" stroke-linejoin="round" stroke-width="3"/>
      </g>
      <text id="csv" transform="translate(1020 570)" fill="#fa9627" font-size="12" font-family="SegoeUI-Bold, Segoe UI" font-weight="700" letter-spacing="0.05em"><tspan x="0" y="0">GIF</tspan></text>
    </g>
  </g>
</svg>
